<svg width="512" height="512" viewBox="0 0 512 512" fill="none" xmlns="http://www.w3.org/2000/svg" role="img" aria-label="MSB AI Consulting Logo">
  <defs>
    <linearGradient id="navy" x1="120" y1="80" x2="392" y2="432" gradientUnits="userSpaceOnUse">
      <stop stop-color="#071B3A" />
      <stop offset="1" stop-color="#0E2A4D" />
    </linearGradient>
    <linearGradient id="teal" x1="136" y1="190" x2="376" y2="362" gradientUnits="userSpaceOnUse">
      <stop stop-color="#008E92" />
      <stop offset="1" stop-color="#5B8C8E" />
    </linearGradient>
  </defs>
  <rect width="512" height="512" rx="92" fill="white" />
  <circle cx="256" cy="102" r="36" fill="url(#navy)" />
  <path d="M215 129C170 141 141 184 141 230V267" stroke="url(#navy)" stroke-width="28" stroke-linecap="round" />
  <path d="M297 129C342 141 371 184 371 230V267" stroke="url(#navy)" stroke-width="28" stroke-linecap="round" />
  <path d="M256 138V258" stroke="url(#navy)" stroke-width="16" stroke-linecap="round" />
  <path d="M256 258L167 311" stroke="url(#teal)" stroke-width="16" stroke-linecap="round" />
  <path d="M256 258L345 311" stroke="url(#teal)" stroke-width="16" stroke-linecap="round" />
  <circle cx="141" cy="332" r="34" fill="#008E92" opacity="0.95" />
  <circle cx="371" cy="332" r="34" fill="#5B8C8E" opacity="0.95" />
  <path d="M174 332H320" stroke="url(#teal)" stroke-width="20" stroke-linecap="round" />
  <path d="M313 320L338 332L313 344" fill="#008E92" />
  <text x="256" y="414" text-anchor="middle" fill="#071B3A" font-family="Inter, Arial, sans-serif" font-size="82" font-weight="700" letter-spacing="-0.04em">MSB</text>
  <text x="256" y="462" text-anchor="middle" fill="#2F3437" font-family="Inter, Arial, sans-serif" font-size="34" font-weight="500" letter-spacing="-0.01em">AI Consulting</text>
</svg>
